{
	"asset":{
		"generator":"Khronos glTF Blender I/O v3.6.27",
		"version":"2.0"
	},
	"extensionsUsed":[
		"KHR_materials_specular",
		"KHR_materials_ior"
	],
	"scene":0,
	"scenes":[
		{
			"extras":{
				"sketcher":{
					"entities":{},
					"constraints":{},
					"version":[
						0,
						27,
						3
					]
				}
			},
			"name":"Scene",
			"nodes":[
				0,
				1,
				2,
				3,
				4,
				5,
				6,
				7
			]
		}
	],
	"nodes":[
		{
			"mesh":0,
			"name":"Cube"
		},
		{
			"camera":0,
			"name":"Camera",
			"rotation":[
				-0.20997299253940582,
				0.3857799470424652,
				0.09062844514846802,
				0.8937962055206299
			],
			"translation":[
				7.358891487121582,
				4.958309173583984,
				6.925790786743164
			]
		},
		{
			"mesh":1,
			"name":"Cube.001"
		},
		{
			"mesh":2,
			"name":"Cube.002"
		},
		{
			"mesh":3,
			"name":"Plane",
			"scale":[
				18.813936233520508,
				18.813936233520508,
				18.813936233520508
			],
			"translation":[
				0,
				-1.099702000617981,
				0
			]
		},
		{
			"name":"Area",
			"rotation":[
				-0.8424397110939026,
				0.08066125959157944,
				0.1371772438287735,
				0.5147538185119629
			],
			"scale":[
				9.47339153289795,
				9.473389625549316,
				9.473390579223633
			],
			"translation":[
				-0.9506045579910278,
				4.190724849700928,
				-2.2791519165039062
			]
		},
		{
			"name":"Area.001",
			"rotation":[
				-0.42728495597839355,
				-0.05328279361128807,
				0.33422377705574036,
				0.8383811712265015
			],
			"scale":[
				9.037899017333984,
				9.037898063659668,
				9.037898063659668
			],
			"translation":[
				-1.367746114730835,
				2.5739951133728027,
				4.6170334815979
			]
		},
		{
			"name":"Area.002",
			"rotation":[
				-0.5963555574417114,
				-0.035610396414995193,
				-0.6485821604728699,
				0.471628338098526
			],
			"scale":[
				10.67533016204834,
				10.675328254699707,
				10.675329208374023
			],
			"translation":[
				6.01828670501709,
				0.16722536087036133,
				1.8844618797302246
			]
		}
	],
	"cameras":[
		{
			"name":"Camera",
			"perspective":{
				"aspectRatio":1.7777777777777777,
				"yfov":0.39959652046304894,
				"zfar":100,
				"znear":0.10000000149011612
			},
			"type":"perspective"
		}
	],
	"materials":[
		{
			"doubleSided":true,
			"name":"fusta_exterior",
			"pbrMetallicRoughness":{
				"baseColorFactor":[
					0.4267052412033081,
					0.13235357403755188,
					0.035445161163806915,
					1
				],
				"metallicFactor":0
			}
		},
		{
			"doubleSided":true,
			"extensions":{
				"KHR_materials_specular":{
					"specularColorFactor":[
						2.371357614441398,
						2.371357614441398,
						2.371357614441398
					]
				},
				"KHR_materials_ior":{
					"ior":1.4500000476837158
				}
			},
			"name":"Material.002",
			"pbrMetallicRoughness":{
				"baseColorFactor":[
					0.2283254712820053,
					0.17859499156475067,
					0.14231379330158234,
					1
				],
				"metallicFactor":0.3057851195335388,
				"roughnessFactor":0
			}
		},
		{
			"doubleSided":true,
			"extensions":{
				"KHR_materials_specular":{
					"specularColorFactor":[
						1.9891967069482976,
						1.9891967069482976,
						1.9891967069482976
					]
				},
				"KHR_materials_ior":{
					"ior":1.4500000476837158
				}
			},
			"name":"Material",
			"pbrMetallicRoughness":{
				"baseColorFactor":[
					0.5834755897521973,
					0.2147326022386551,
					0.058798015117645264,
					1
				],
				"metallicFactor":0,
				"roughnessFactor":0.6487603187561035
			}
		},
		{
			"doubleSided":true,
			"extensions":{
				"KHR_materials_specular":{
					"specularColorFactor":[
						1.9891967069482976,
						1.9891967069482976,
						1.9891967069482976
					]
				},
				"KHR_materials_ior":{
					"ior":1.4500000476837158
				}
			},
			"name":"Material",
			"pbrMetallicRoughness":{
				"baseColorFactor":[
					0.5834755897521973,
					0.2147326022386551,
					0.058798015117645264,
					1
				],
				"metallicFactor":0,
				"roughnessFactor":0.6487603187561035
			}
		},
		{
			"doubleSided":true,
			"name":"Material.001",
			"pbrMetallicRoughness":{
				"baseColorFactor":[
					0.7179762125015259,
					0.8000000715255737,
					0.3395411968231201,
					1
				],
				"metallicFactor":0,
				"roughnessFactor":0.5
			}
		}
	],
	"meshes":[
		{
			"name":"Cube",
			"primitives":[
				{
					"attributes":{
						"POSITION":0,
						"NORMAL":1,
						"TEXCOORD_0":2,
						"TANGENT":3
					},
					"indices":4,
					"material":0
				},
				{
					"attributes":{
						"POSITION":5,
						"NORMAL":6,
						"TEXCOORD_0":7,
						"TANGENT":8
					},
					"indices":9,
					"material":1
				}
			]
		},
		{
			"name":"Cube.001",
			"primitives":[
				{
					"attributes":{
						"POSITION":10,
						"NORMAL":11,
						"TEXCOORD_0":12,
						"TANGENT":13
					},
					"indices":14,
					"material":2
				}
			]
		},
		{
			"name":"Cube.002",
			"primitives":[
				{
					"attributes":{
						"POSITION":15,
						"NORMAL":16,
						"TEXCOORD_0":17,
						"TANGENT":18
					},
					"indices":19,
					"material":3
				}
			]
		},
		{
			"name":"Plane",
			"primitives":[
				{
					"attributes":{
						"POSITION":20,
						"NORMAL":21,
						"TEXCOORD_0":22,
						"TANGENT":23
					},
					"indices":24,
					"material":4
				}
			]
		}
	],
	"accessors":[
		{
			"bufferView":0,
			"componentType":5126,
			"count":175,
			"max":[
				1,
				1,
				1
			],
			"min":[
				-1,
				-1,
				-1
			],
			"type":"VEC3"
		},
		{
			"bufferView":1,
			"componentType":5126,
			"count":175,
			"type":"VEC3"
		},
		{
			"bufferView":2,
			"componentType":5126,
			"count":175,
			"type":"VEC2"
		},
		{
			"bufferView":3,
			"componentType":5126,
			"count":175,
			"type":"VEC4"
		},
		{
			"bufferView":4,
			"componentType":5123,
			"count":288,
			"type":"SCALAR"
		},
		{
			"bufferView":5,
			"componentType":5126,
			"count":379,
			"max":[
				1.0328149795532227,
				1.0328149795532227,
				1.0328149795532227
			],
			"min":[
				-1.0328149795532227,
				-1.0328149795532227,
				-1.0328149795532227
			],
			"type":"VEC3"
		},
		{
			"bufferView":6,
			"componentType":5126,
			"count":379,
			"type":"VEC3"
		},
		{
			"bufferView":7,
			"componentType":5126,
			"count":379,
			"type":"VEC2"
		},
		{
			"bufferView":8,
			"componentType":5126,
			"count":379,
			"type":"VEC4"
		},
		{
			"bufferView":9,
			"componentType":5123,
			"count":720,
			"type":"SCALAR"
		},
		{
			"bufferView":10,
			"componentType":5126,
			"count":600,
			"max":[
				0.8764996528625488,
				0.8764996528625488,
				0.8764996528625488
			],
			"min":[
				-0.8764996528625488,
				-0.8764996528625488,
				-0.8764996528625488
			],
			"type":"VEC3"
		},
		{
			"bufferView":11,
			"componentType":5126,
			"count":600,
			"type":"VEC3"
		},
		{
			"bufferView":12,
			"componentType":5126,
			"count":600,
			"type":"VEC2"
		},
		{
			"bufferView":13,
			"componentType":5126,
			"count":600,
			"type":"VEC4"
		},
		{
			"bufferView":14,
			"componentType":5123,
			"count":900,
			"type":"SCALAR"
		},
		{
			"bufferView":15,
			"componentType":5126,
			"count":86,
			"max":[
				0.769635796546936,
				0.7621534466743469,
				0.9254749417304993
			],
			"min":[
				-0.7698603868484497,
				-0.762274980545044,
				-0.9254749417304993
			],
			"type":"VEC3"
		},
		{
			"bufferView":16,
			"componentType":5126,
			"count":86,
			"type":"VEC3"
		},
		{
			"bufferView":17,
			"componentType":5126,
			"count":86,
			"type":"VEC2"
		},
		{
			"bufferView":18,
			"componentType":5126,
			"count":86,
			"type":"VEC4"
		},
		{
			"bufferView":19,
			"componentType":5123,
			"count":120,
			"type":"SCALAR"
		},
		{
			"bufferView":20,
			"componentType":5126,
			"count":4,
			"max":[
				1,
				0,
				1
			],
			"min":[
				-1,
				0,
				-1
			],
			"type":"VEC3"
		},
		{
			"bufferView":21,
			"componentType":5126,
			"count":4,
			"type":"VEC3"
		},
		{
			"bufferView":22,
			"componentType":5126,
			"count":4,
			"type":"VEC2"
		},
		{
			"bufferView":23,
			"componentType":5126,
			"count":4,
			"type":"VEC4"
		},
		{
			"bufferView":24,
			"componentType":5123,
			"count":6,
			"type":"SCALAR"
		}
	],
	"bufferViews":[
		{
			"buffer":0,
			"byteLength":2100,
			"byteOffset":0,
			"target":34962
		},
		{
			"buffer":0,
			"byteLength":2100,
			"byteOffset":2100,
			"target":34962
		},
		{
			"buffer":0,
			"byteLength":1400,
			"byteOffset":4200,
			"target":34962
		},
		{
			"buffer":0,
			"byteLength":2800,
			"byteOffset":5600,
			"target":34962
		},
		{
			"buffer":0,
			"byteLength":576,
			"byteOffset":8400,
			"target":34963
		},
		{
			"buffer":0,
			"byteLength":4548,
			"byteOffset":8976,
			"target":34962
		},
		{
			"buffer":0,
			"byteLength":4548,
			"byteOffset":13524,
			"target":34962
		},
		{
			"buffer":0,
			"byteLength":3032,
			"byteOffset":18072,
			"target":34962
		},
		{
			"buffer":0,
			"byteLength":6064,
			"byteOffset":21104,
			"target":34962
		},
		{
			"buffer":0,
			"byteLength":1440,
			"byteOffset":27168,
			"target":34963
		},
		{
			"buffer":0,
			"byteLength":7200,
			"byteOffset":28608,
			"target":34962
		},
		{
			"buffer":0,
			"byteLength":7200,
			"byteOffset":35808,
			"target":34962
		},
		{
			"buffer":0,
			"byteLength":4800,
			"byteOffset":43008,
			"target":34962
		},
		{
			"buffer":0,
			"byteLength":9600,
			"byteOffset":47808,
			"target":34962
		},
		{
			"buffer":0,
			"byteLength":1800,
			"byteOffset":57408,
			"target":34963
		},
		{
			"buffer":0,
			"byteLength":1032,
			"byteOffset":59208,
			"target":34962
		},
		{
			"buffer":0,
			"byteLength":1032,
			"byteOffset":60240,
			"target":34962
		},
		{
			"buffer":0,
			"byteLength":688,
			"byteOffset":61272,
			"target":34962
		},
		{
			"buffer":0,
			"byteLength":1376,
			"byteOffset":61960,
			"target":34962
		},
		{
			"buffer":0,
			"byteLength":240,
			"byteOffset":63336,
			"target":34963
		},
		{
			"buffer":0,
			"byteLength":48,
			"byteOffset":63576,
			"target":34962
		},
		{
			"buffer":0,
			"byteLength":48,
			"byteOffset":63624,
			"target":34962
		},
		{
			"buffer":0,
			"byteLength":32,
			"byteOffset":63672,
			"target":34962
		},
		{
			"buffer":0,
			"byteLength":64,
			"byteOffset":63704,
			"target":34962
		},
		{
			"buffer":0,
			"byteLength":12,
			"byteOffset":63768,
			"target":34963
		}
	],
	"buffers":[
		{
			"byteLength":63780,
			"uri":"caixa_fusta-a4cecf3186b91a13777e4f6379615505.bin"
		}
	]
}
